<svg xmlns="http://www.w3.org/2000/svg" width="56.631" height="56.631" viewBox="0 0 56.631 56.631"><defs><style>.a{fill:#555;}</style></defs><path class="a" d="M54.271,33.035h-11.8V25.956a2.36,2.36,0,0,0-.885-1.843L30.675,15.383V11.8h7.079a2.36,2.36,0,0,0,2.36-2.36V2.36A2.36,2.36,0,0,0,37.754,0H28.315a2.36,2.36,0,0,0-2.36,2.36V15.383L15.043,24.114a2.36,2.36,0,0,0-.885,1.842v7.079H2.36A2.36,2.36,0,0,0,0,35.394V54.271a2.36,2.36,0,0,0,2.36,2.36H54.271a2.36,2.36,0,0,0,2.36-2.36V35.394A2.36,2.36,0,0,0,54.271,33.035Zm-2.36,4.719v2.36H42.473v-2.36ZM35.394,7.079H30.675V4.719h4.719ZM4.719,37.754h9.438v2.36H4.719Zm0,7.079h9.438v7.079H4.719Zm21.237,7.079V47.192a2.36,2.36,0,0,1,4.719,0v4.719Zm9.438,0V47.192a7.079,7.079,0,1,0-14.158,0v4.719h-2.36V27.09l9.438-7.551,9.438,7.551V51.912Zm16.517,0H42.473V44.833h9.438Z"/><path class="a" d="M79.079,80a7.079,7.079,0,1,0,7.079,7.079A7.079,7.079,0,0,0,79.079,80Zm0,9.438a2.36,2.36,0,1,1,2.36-2.36,2.36,2.36,0,0,1-2.36,2.36Z" transform="translate(-50.763 -56.404)"/></svg>