<svg xmlns="http://www.w3.org/2000/svg" width="30.157" height="22.95" viewBox="0 0 30.157 22.95"><defs><style>.a{fill:#fff;}</style></defs><g transform="translate(0 0)"><path class="a" d="M26.476,57.75H3.688A3.691,3.691,0,0,0,0,61.438V77.012A3.691,3.691,0,0,0,3.688,80.7H26.469a3.691,3.691,0,0,0,3.688-3.688V61.444A3.687,3.687,0,0,0,26.476,57.75Zm2,19.262a2.005,2.005,0,0,1-2,2H3.688a2.005,2.005,0,0,1-2-2V61.444a2.005,2.005,0,0,1,2-2H26.469a2.005,2.005,0,0,1,2,2V77.012Z" transform="translate(0 -57.75)"/><path class="a" d="M71.293,116.992l7.375-6.614a.844.844,0,0,0-1.129-1.254l-10.171,9.129-1.984-1.772c-.006-.006-.012-.012-.012-.019a1.245,1.245,0,0,0-.137-.119l-8.074-7.226a.844.844,0,0,0-1.123,1.26l7.463,6.67-7.432,6.957a.846.846,0,0,0-.037,1.192.862.862,0,0,0,.618.268.844.844,0,0,0,.574-.225l7.544-7.057,2.047,1.828a.84.84,0,0,0,1.123-.006l2.1-1.884,7.5,7.126a.845.845,0,0,0,1.192-.031.846.846,0,0,0-.031-1.192Z" transform="translate(-52.274 -105.711)"/></g></svg>