<svg xmlns="http://www.w3.org/2000/svg" width="53.466" height="53.466" viewBox="0 0 53.466 53.466"><defs><style>.a{fill:#555;}</style></defs><g transform="translate(-0.001 0)"><g transform="translate(0.001 0)"><path class="a" d="M53.445,33.391a1.775,1.775,0,0,0-1.328-1.447C52,31.915,42.6,29.555,35.7,25.306l-7.538-7.54c-4.244-6.9-6.61-16.3-6.639-16.416A1.775,1.775,0,0,0,18.291.84L16.015,4.511a5.469,5.469,0,0,0-4.817-1.3l-.13.035A15.428,15.428,0,0,0,.157,14.159l-.034.13A5.532,5.532,0,0,0,1.6,19.3c.1.1.2.191.3.279l.039.032c4.275,3.416,8.438,7.029,12.429,10.784C10.8,32.377,7.686,33.363,5.31,33.257a.905.905,0,0,0-.587,1.626l2.683,2.034L4.362,39.838a.9.9,0,0,0,.586,1.557,21.645,21.645,0,0,0,8.842-1.718,21.642,21.642,0,0,0-1.718,8.841.905.905,0,0,0,1.557.587L16.55,46.06l2.034,2.684a.905.905,0,0,0,1.625-.587c-.106-2.376.88-5.486,2.863-9.063,3.757,3.993,7.37,8.156,10.784,12.43l.032.04c.088.1.181.2.278.3a5.534,5.534,0,0,0,5.011,1.479l.13-.035A15.429,15.429,0,0,0,50.218,42.4a5.014,5.014,0,0,0-1.262-4.947l3.671-2.276A1.777,1.777,0,0,0,53.445,33.391ZM19.2,6.1c.353,1.106.787,2.387,1.3,3.763q-1.055-1.24-2.089-2.495ZM17.481,28.446c-4.259-4.042-8.715-7.928-13.3-11.591-.024-.021-.048-.044-.072-.067a1.821,1.821,0,0,1-.536-1.666,11.788,11.788,0,0,1,8.456-8.456,1.607,1.607,0,0,1,1.733.608q.419.524.842,1.046l.539.662c3.253,3.982,6.67,7.862,10.209,11.59ZM46.8,41.435a11.788,11.788,0,0,1-8.455,8.456,1.96,1.96,0,0,1-1.666-.536c-.023-.024-.046-.047-.067-.071-3.66-4.581-7.546-9.037-11.59-13.3l7.873-7.873c3.729,3.54,7.608,6.957,11.591,10.209l.661.539q.522.423,1.047.842c.024.021.048.043.071.067A1.869,1.869,0,0,1,46.8,41.435Zm-.706-6.386Q44.839,34.015,43.6,32.96c1.377.515,2.658.95,3.764,1.3Z" transform="translate(-0.001 0)"/></g></g></svg>