<svg xmlns="http://www.w3.org/2000/svg" width="29.983" height="38.305" viewBox="0 0 29.983 38.305"><defs><style>.a{fill:#fff;}</style></defs><g transform="translate(-1.872 0)"><g transform="translate(1.872 0)"><path class="a" d="M5.618,11.813a2.223,2.223,0,0,0,.556,1.216c.542,3.608,3.561,6.958,6.32,6.958,3.214,0,6.144-3.626,6.713-6.951a2.224,2.224,0,0,0,.567-1.223c.185-.676.418-1.852,0-2.4-.022-.027-.047-.053-.067-.08.389-1.42.88-4.353-.878-6.353a6.465,6.465,0,0,0-3.25-2l-1-.347A16.011,16.011,0,0,0,11.835,0a.655.655,0,0,0-.227.02A1.138,1.138,0,0,1,11.2.069a2.841,2.841,0,0,0-1.1.187A7.868,7.868,0,0,0,5.78,4.588c-.089.245-.478,1.516.038,4.633a.894.894,0,0,0-.2.2C5.2,9.964,5.433,11.137,5.618,11.813Zm1.26-6.8c.007-.016.011-.031.018-.049.794-2.465,3.61-3.6,3.628-3.612a1.935,1.935,0,0,1,.514-.12,2.337,2.337,0,0,0,.769-.051,16.415,16.415,0,0,1,2.407.567l1.011.347A5.372,5.372,0,0,1,17.9,3.7a.362.362,0,0,0,.038.044c1.627,1.836.787,4.871.491,5.755a.594.594,0,0,0,.407.756,5.426,5.426,0,0,1-.207,1.276c-.007.022-.011.044-.016.067a1.01,1.01,0,0,1-.307.669.576.576,0,0,0-.231.389c-.393,2.788-2.972,6.158-5.584,6.158-2.2,0-4.813-3.1-5.184-6.147a.586.586,0,0,0-.231-.4,1.044,1.044,0,0,1-.309-.671c0-.022-.009-.047-.013-.069a5.582,5.582,0,0,1-.2-1.214.6.6,0,0,0,.313-.122.587.587,0,0,0,.218-.574C6.44,6.236,6.878,5.015,6.878,5.015Z" transform="translate(2.421 0)"/><path class="a" d="M29.29,12.622a5.089,5.089,0,0,0-2.21-1.489l-.329-.1a24.568,24.568,0,0,0-2.694-1.065c-.282-.1-.527-.2-.754-.3-.936-.465-1.716-.987-1.881-1.478l.7,5.64-5.1,13.1L12.211,14.1l.1-5.915c-.436,1.365-5.66,2.952-5.66,2.952a5.111,5.111,0,0,0-2.21,1.489c-2.3,3.408-2.568,10.986-2.568,10.986.031,1.732.778,1.914.778,1.914C7.93,27.876,16.219,28.3,16.219,28.3c.447.009.865-.013,1.278-.04l.011.044s8.29-.42,13.569-2.774c0,0,.749-.182.778-1.914C31.856,23.61,31.587,16.027,29.29,12.622Z" transform="translate(-1.872 10.004)"/><path class="a" d="M10.587,8.45c.06-.076.12-.144.178-.225a.611.611,0,0,1-.013-.076C10.7,8.257,10.64,8.346,10.587,8.45Z" transform="translate(8.786 9.968)"/><path class="a" d="M6.592,8.2l-.013-.053-.011.062c0-.011.013-.022.016-.033A.155.155,0,0,1,6.592,8.2Z" transform="translate(3.871 9.969)"/><path class="a" d="M7.691,9.253l2.263,3.461,2.263-3.461A5.594,5.594,0,0,1,7.691,9.253Z" transform="translate(5.245 11.317)"/><path class="a" d="M9.662,22.45l1.729-10.51L9.662,10.81,7.93,11.939Z" transform="translate(5.537 13.221)"/></g></g></svg>