<svg xmlns="http://www.w3.org/2000/svg" width="16.565" height="21.162" viewBox="0 0 16.565 21.162"><defs><style>.a{fill:#00c9ff;}</style></defs><g transform="translate(0 0)"><path class="a" d="M5.512,6.526a1.228,1.228,0,0,0,.307.672c.3,1.993,1.967,3.844,3.492,3.844,1.776,0,3.395-2,3.709-3.84a1.228,1.228,0,0,0,.313-.675c.1-.373.231-1.023,0-1.326-.012-.015-.026-.029-.037-.044a3.878,3.878,0,0,0-.485-3.51,3.572,3.572,0,0,0-1.8-1.1L10.463.35A8.846,8.846,0,0,0,8.947,0a.362.362,0,0,0-.125.011A.629.629,0,0,1,8.6.038a1.57,1.57,0,0,0-.607.1A4.347,4.347,0,0,0,5.6,2.535a5.419,5.419,0,0,0,.021,2.559A.494.494,0,0,0,5.51,5.2C5.28,5.5,5.41,6.153,5.512,6.526Zm.7-3.756c0-.009.006-.017.01-.027a3.746,3.746,0,0,1,2-2A1.069,1.069,0,0,1,8.506.682,1.291,1.291,0,0,0,8.931.653a9.069,9.069,0,0,1,1.33.313l.559.192a2.968,2.968,0,0,1,1.48.885.2.2,0,0,0,.021.025c.9,1.014.435,2.691.271,3.18a.328.328,0,0,0,.225.418,3,3,0,0,1-.114.7c0,.012-.006.025-.009.037a.558.558,0,0,1-.169.37.318.318,0,0,0-.128.215c-.217,1.54-1.642,3.4-3.085,3.4C8.1,10.394,6.653,8.679,6.448,7a.324.324,0,0,0-.128-.22.577.577,0,0,1-.171-.371c0-.012,0-.026-.007-.038A3.084,3.084,0,0,1,6.029,5.7.33.33,0,0,0,6.2,5.631a.324.324,0,0,0,.12-.317A5.6,5.6,0,0,1,6.209,2.771Z" transform="translate(-1.071 0)"/><path class="a" d="M17.02,10.634A2.811,2.811,0,0,0,15.8,9.811l-.182-.058a13.573,13.573,0,0,0-1.489-.588c-.156-.055-.291-.109-.416-.163-.517-.257-.948-.545-1.039-.817l.388,3.116-2.817,7.24-2.66-7.093L7.638,8.18C7.4,8.934,4.511,9.811,4.511,9.811a2.824,2.824,0,0,0-1.221.823C2.022,12.517,1.872,16.7,1.872,16.7c.017.957.43,1.057.43,1.057a25.8,25.8,0,0,0,7.5,1.533c.247,0,.478-.007.706-.022l.006.025a25.8,25.8,0,0,0,7.5-1.533s.414-.1.43-1.057C18.437,16.7,18.289,12.515,17.02,10.634Z" transform="translate(-1.872 1.866)"/><path class="a" d="M10.587,8.316c.033-.042.066-.08.1-.124a.337.337,0,0,1-.007-.042C10.647,8.209,10.616,8.258,10.587,8.316Z" transform="translate(0.116 1.86)"/><path class="a" d="M6.582,8.18l-.007-.029-.006.034c0-.006.007-.012.009-.018A.086.086,0,0,1,6.582,8.18Z" transform="translate(-0.801 1.86)"/><path class="a" d="M7.691,9.253l1.25,1.912,1.25-1.912A3.09,3.09,0,0,1,7.691,9.253Z" transform="translate(-0.544 2.111)"/><path class="a" d="M8.887,17.241l.955-5.807-.955-.624-.957.624Z" transform="translate(-0.49 2.466)"/></g></svg>