<svg xmlns="http://www.w3.org/2000/svg" width="27.038" height="13.519" viewBox="0 0 27.038 13.519"><defs><style>.a{fill:#fff;}</style></defs><g transform="translate(0 -96.243)"><g transform="translate(0 96.243)"><path class="a" d="M.845,97.933H26.193a.845.845,0,0,0,0-1.69H.845a.845.845,0,0,0,0,1.69Z" transform="translate(0 -96.243)"/><path class="a" d="M26.193,180.455H.845a.845.845,0,0,0,0,1.69H26.193a.845.845,0,0,0,0-1.69Z" transform="translate(0 -174.54)"/><path class="a" d="M138.046,264.667h-16.9a.845.845,0,0,0,0,1.69h16.9a.845.845,0,1,0,0-1.69Z" transform="translate(-111.854 -252.838)"/></g></g></svg>