<svg xmlns="http://www.w3.org/2000/svg" width="12.281" height="21.673" viewBox="0 0 12.281 21.673"><defs><style>.a{fill:#00c9ff;}</style></defs><g transform="translate(3.973 1.084)"><g transform="translate(0)"><path class="a" d="M208.774,25.6h-3.612a.361.361,0,0,0,0,.722h3.612a.361.361,0,1,0,0-.722Z" transform="translate(-204.801 -25.6)"/></g></g><g transform="translate(9.753 1.084)"><g transform="translate(0)"><path class="a" d="M342.056,25.6H341.7a.361.361,0,1,0,0,.722h.361a.361.361,0,0,0,0-.722Z" transform="translate(-341.334 -25.6)"/></g></g><g transform="translate(4.696 18.422)"><g transform="translate(0)"><path class="a" d="M223.76,435.2h-.9a1,1,0,0,0-1,1v.174a1,1,0,0,0,1,1h.9a1,1,0,0,0,1-1V436.2A1,1,0,0,0,223.76,435.2Zm.274,1.171a.274.274,0,0,1-.274.274h-.9a.274.274,0,0,1-.274-.274V436.2a.274.274,0,0,1,.274-.274h.9a.274.274,0,0,1,.274.274Z" transform="translate(-221.867 -435.2)"/></g></g><g transform="translate(0)"><g transform="translate(0)"><path class="a" d="M121.909,0h-9.67a1.307,1.307,0,0,0-1.306,1.306V20.367a1.307,1.307,0,0,0,1.306,1.306h9.67a1.307,1.307,0,0,0,1.306-1.305V1.306A1.307,1.307,0,0,0,121.909,0Zm.583,20.367a.584.584,0,0,1-.583.583h-9.67a.584.584,0,0,1-.583-.583V1.306a.584.584,0,0,1,.583-.583h9.67a.584.584,0,0,1,.583.583V20.367Z" transform="translate(-110.933)"/></g></g><g transform="translate(0 2.167)"><g transform="translate(0)"><path class="a" d="M122.854,51.2H111.3a.361.361,0,0,0-.361.361V66.732a.361.361,0,0,0,.361.361h11.559a.361.361,0,0,0,.361-.361V51.561A.361.361,0,0,0,122.854,51.2Zm-.361,15.171H111.656V51.922h10.836Z" transform="translate(-110.934 -51.2)"/></g></g></svg>