<svg xmlns="http://www.w3.org/2000/svg" width="19.216" height="33.911" viewBox="0 0 19.216 33.911"><defs><style>.a{fill:#fff;}</style></defs><g transform="translate(6.217 1.696)"><g transform="translate(0)"><path class="a" d="M211.018,25.6h-5.652a.565.565,0,0,0,0,1.13h5.652a.565.565,0,1,0,0-1.13Z" transform="translate(-204.801 -25.6)"/></g></g><g transform="translate(15.26 1.696)"><g transform="translate(0)"><path class="a" d="M342.464,25.6H341.9a.565.565,0,1,0,0,1.13h.565a.565.565,0,0,0,0-1.13Z" transform="translate(-341.334 -25.6)"/></g></g><g transform="translate(7.347 28.824)"><g transform="translate(0)"><path class="a" d="M224.83,435.2h-1.4a1.561,1.561,0,0,0-1.559,1.559v.273a1.561,1.561,0,0,0,1.559,1.559h1.4a1.561,1.561,0,0,0,1.559-1.559v-.273A1.561,1.561,0,0,0,224.83,435.2Zm.428,1.832a.429.429,0,0,1-.428.428h-1.4a.429.429,0,0,1-.429-.428v-.273a.429.429,0,0,1,.429-.429h1.4a.429.429,0,0,1,.429.429Z" transform="translate(-221.867 -435.2)"/></g></g><g transform="translate(0)"><g transform="translate(0)"><path class="a" d="M128.106,0h-15.13a2.046,2.046,0,0,0-2.043,2.043V31.868a2.046,2.046,0,0,0,2.043,2.043h15.13a2.046,2.046,0,0,0,2.043-2.043V2.043A2.045,2.045,0,0,0,128.106,0Zm.912,31.868a.914.914,0,0,1-.912.913h-15.13a.914.914,0,0,1-.913-.912V2.043a.914.914,0,0,1,.913-.913h15.13a.914.914,0,0,1,.913.913V31.868Z" transform="translate(-110.933)"/></g></g><g transform="translate(0 3.391)"><g transform="translate(0)"><path class="a" d="M129.585,51.2H111.5a.565.565,0,0,0-.565.565V75.5a.565.565,0,0,0,.565.565h18.086a.565.565,0,0,0,.565-.565V51.765A.565.565,0,0,0,129.585,51.2Zm-.565,23.737H112.064V52.33H129.02Z" transform="translate(-110.934 -51.2)"/></g></g></svg>