<svg xmlns="http://www.w3.org/2000/svg" width="28.071" height="33.772" viewBox="0 0 28.071 33.772"><defs><style>.a{fill:#fff;}</style></defs><g transform="translate(-40.856)"><g transform="translate(40.856)"><path class="a" d="M66.52,0H47.866a2.412,2.412,0,0,0-2.409,2.409V3.947H43.264a2.412,2.412,0,0,0-2.408,2.409V31.363a2.412,2.412,0,0,0,2.408,2.409H61.919a2.412,2.412,0,0,0,2.409-2.409V29.825H66.52a2.412,2.412,0,0,0,2.409-2.408V2.409A2.412,2.412,0,0,0,66.52,0ZM62.4,31.363a.483.483,0,0,1-.482.482H43.264a.483.483,0,0,1-.482-.482V6.355a.483.483,0,0,1,.482-.482h2.193V27.416a2.412,2.412,0,0,0,2.409,2.408H62.4v1.538ZM67,27.416a.483.483,0,0,1-.482.482H47.866a.482.482,0,0,1-.482-.482V2.409a.482.482,0,0,1,.482-.482H66.52A.482.482,0,0,1,67,2.409V27.416Z" transform="translate(-40.856)"/><path class="a" d="M175.065,85.786h-14.13a.963.963,0,1,0,0,1.927h14.129a.963.963,0,0,0,0-1.927Z" transform="translate(-151.664 -79.802)"/><path class="a" d="M175.065,151.529h-14.13a.963.963,0,1,0,0,1.927h14.129a.963.963,0,0,0,0-1.927Z" transform="translate(-151.664 -140.96)"/><path class="a" d="M175.065,217.27h-14.13a.963.963,0,1,0,0,1.927h14.129a.963.963,0,0,0,0-1.927Z" transform="translate(-151.664 -202.115)"/><path class="a" d="M175.065,283.014h-14.13a.963.963,0,1,0,0,1.927h14.129a.963.963,0,0,0,0-1.927Z" transform="translate(-151.664 -263.274)"/></g></g></svg>