<svg xmlns="http://www.w3.org/2000/svg" width="32.545" height="19.4" viewBox="0 0 32.545 19.4"><defs><style>.a{fill:#00c9ff;}</style></defs><g transform="translate(0 -98.725)"><path class="a" d="M16.273,98.725c-6.218,0-11.857,3.4-16.018,8.928a1.288,1.288,0,0,0,0,1.538c4.161,5.532,9.8,8.934,16.018,8.934s11.857-3.4,16.018-8.928a1.288,1.288,0,0,0,0-1.538C28.13,102.127,22.491,98.725,16.273,98.725Zm.446,16.531a6.845,6.845,0,1,1,6.385-6.385A6.849,6.849,0,0,1,16.719,115.256Zm-.206-3.156a3.686,3.686,0,1,1,3.442-3.442A3.68,3.68,0,0,1,16.512,112.1Z" transform="translate(0)"/></g></svg>