<svg xmlns="http://www.w3.org/2000/svg" width="26.76" height="25.669" viewBox="0 0 26.76 25.669"><defs><style>.a{fill:#00c9ff;}</style></defs><g transform="translate(0 -10.433)"><g transform="translate(0 18.63)"><path class="a" d="M4.368,167.256H.874A.875.875,0,0,0,0,168.13v15.725a.874.874,0,0,0,.874.873H4.368a.874.874,0,0,0,.874-.873V168.13A.875.875,0,0,0,4.368,167.256Z" transform="translate(0 -167.256)"/></g><g transform="translate(6.989 10.433)"><path class="a" d="M151.315,18.63c-.141-.024-6.728,0-6.728,0l.92-2.51c.635-1.734.224-4.381-1.538-5.322a3.02,3.02,0,0,0-2.021-.3,1.458,1.458,0,0,0-.89.667,3.628,3.628,0,0,0-.28,1.238,5.349,5.349,0,0,1-1.482,2.833c-1.356,1.323-5.57,5.139-5.57,5.139V34.355h14.56a2.646,2.646,0,0,0,2.283-3.907,2.645,2.645,0,0,0,.874-3.494,2.645,2.645,0,0,0,.874-3.494A2.666,2.666,0,0,0,151.315,18.63Z" transform="translate(-133.726 -10.433)"/></g></g></svg>