<svg xmlns="http://www.w3.org/2000/svg" width="66" height="58.008" viewBox="0 0 66 58.008"><defs><style>.a{fill:#555;}</style></defs><g transform="translate(0 -30.999)"><g transform="translate(0 30.999)"><path class="a" d="M66,71.6a5.81,5.81,0,0,0-3.867-5.468V51.525l2.8-1.392a1.934,1.934,0,0,0,0-3.462L33.862,31.2a1.933,1.933,0,0,0-1.724,0L1.072,46.671a1.934,1.934,0,0,0,0,3.462L12.9,56.024l2.75,11.208a1.934,1.934,0,0,0,.718,1.086,27.715,27.715,0,0,0,33.258,0,1.934,1.934,0,0,0,.718-1.086L53.1,56.024l5.169-2.574V66.137a5.8,5.8,0,0,0-1.679,10A8.027,8.027,0,0,0,54.4,81.273c0,4.115,4.239,7.081,4.723,7.406a1.934,1.934,0,0,0,2.156,0c.483-.325,4.723-3.29,4.723-7.406a8.026,8.026,0,0,0-2.189-5.134A5.791,5.791,0,0,0,66,71.6ZM46.759,65.624a23.984,23.984,0,0,1-27.519,0l-1.8-7.341,14.7,7.319a1.934,1.934,0,0,0,1.724,0l14.7-7.319ZM33,61.71,6.272,48.4,33,35.093,59.728,48.4Zm27.2,22.87c-.906-.856-1.934-2.119-1.934-3.308s1.029-2.453,1.933-3.308c.906.856,1.934,2.119,1.934,3.308S61.1,83.726,60.2,84.581Zm0-11.042A1.934,1.934,0,1,1,62.133,71.6,1.936,1.936,0,0,1,60.2,73.538Z" transform="translate(0 -30.999)"/></g><g transform="translate(22.863 43.07)"><path class="a" d="M197.069,125.206a1.934,1.934,0,0,0-2.734,0,9.668,9.668,0,0,1-13.673,0,1.934,1.934,0,1,0-2.734,2.735,13.535,13.535,0,0,0,19.142,0A1.934,1.934,0,0,0,197.069,125.206Z" transform="translate(-177.36 -124.64)"/></g></g></svg>