<svg xmlns="http://www.w3.org/2000/svg" xmlns:xlink="http://www.w3.org/1999/xlink" width="39.362" height="41.133" viewBox="0 0 39.362 41.133"><defs><style>.a{fill:#fff;}.b{filter:url(#a);}</style><filter id="a" x="0" y="0" width="39.362" height="41.133" filterUnits="userSpaceOnUse"><feOffset dx="1" dy="3" input="SourceAlpha"/><feGaussianBlur stdDeviation="2.5" result="b"/><feFlood flood-opacity="0.161"/><feComposite operator="in" in2="b"/><feComposite in="SourceGraphic"/></filter></defs><g class="b" transform="matrix(1, 0, 0, 1, 0, 0)"><path class="a" d="M21.932,17.275a4.4,4.4,0,0,0-3.132,1.3,4.49,4.49,0,0,0-.6.757l-7.654-4.646a4.38,4.38,0,0,0,0-3.272L18.2,6.8a4.452,4.452,0,1,0-.4-.794l-7.666,4.617a4.43,4.43,0,1,0,0,4.847L17.8,20.123a4.427,4.427,0,1,0,4.135-2.848Z" transform="translate(4.5 4.5)"/></g></svg>