<svg xmlns="http://www.w3.org/2000/svg" width="46.602" height="46.604" viewBox="0 0 46.602 46.604"><defs><style>.a{fill:#ababab;}</style></defs><g transform="translate(0 0)"><path class="a" d="M23.3,0A23.3,23.3,0,1,0,46.6,23.3,23.328,23.328,0,0,0,23.3,0ZM36.738,36.144v-.919c0-3.178-3.672-4.337-5.637-5.178-.711-.3-2.053-.949-3.429-1.622a1.879,1.879,0,0,1-.936-1.35l-.152-1.505A6.471,6.471,0,0,0,28.747,21.7h.237a.8.8,0,0,0,.781-.622l.373-2.3a.763.763,0,0,0-.791-.79c.01-.049.019-.1.023-.14.048-.277.077-.544.1-.8.023-.209.042-.426.053-.65a5.2,5.2,0,0,0-.45-2.57,6.1,6.1,0,0,0-1.432-2.086c-1.82-1.723-3.931-2.394-5.731-1.009a4.164,4.164,0,0,0-3.735,1.581,4.9,4.9,0,0,0-1.085,2.2,6.977,6.977,0,0,0-.251,1.662A6.726,6.726,0,0,0,17.005,18a.77.77,0,0,0-.717.782l.372,2.3a.8.8,0,0,0,.781.622h.213a7.727,7.727,0,0,0,2.18,3.94L19.688,27.1a1.885,1.885,0,0,1-.937,1.35c-1.331.649-2.642,1.275-3.427,1.6-1.849.762-5.637,2-5.637,5.178v.719a18.607,18.607,0,1,1,27.051.2Z" transform="translate(-0.001)"/></g></svg>